<svg width="361" height="375" viewBox="0 0 361 375" fill="none" xmlns="http://www.w3.org/2000/svg">
<g clip-path="url(#clip0_10_848)">
<path d="M283.699 249C289.479 249 294.182 244.034 293.995 237.912C293.278 214.518 290.299 191.479 285.169 169.785C279.231 144.67 270.527 121.851 259.555 102.629C248.582 83.4072 235.556 68.1597 221.219 57.7569C206.883 47.3542 191.518 42 176 42C160.482 42 145.117 47.3542 130.781 57.7569C116.444 68.1597 103.418 83.4072 92.4453 102.629C81.4727 121.851 72.7688 144.67 66.8305 169.785C61.7009 191.479 58.7217 214.518 58.0054 237.912C57.818 244.034 62.521 249 68.3005 249L283.699 249Z" fill="#323232"/>
<rect x="141" y="185" width="68.2139" height="128.131" rx="13.7769" fill="white" stroke="#323232" stroke-width="4" stroke-linecap="round"/>
<path d="M142.896 267.634V226.678H211.5C206.333 247.68 175.523 268.768 142.896 267.634Z" fill="#7E7E7E" fill-opacity="0.45"/>
<path d="M132 182.5C132 194.189 121.45 204 108 204C94.5501 204 84 194.189 84 182.5C84 170.811 94.5501 161 108 161C121.45 161 132 170.811 132 182.5Z" fill="white" stroke="#323232" stroke-width="4"/>
<path d="M219 182.5C219 194.189 229.55 204 243 204C256.45 204 267 194.189 267 182.5C267 170.811 256.45 161 243 161C229.55 161 219 170.811 219 182.5Z" fill="white" stroke="#323232" stroke-width="4"/>
<path d="M242 172.261C242 194.713 236.042 211.834 224.986 223.337C213.941 234.828 197.532 241 176.03 241C154.526 241 137.842 234.827 126.529 223.321C115.211 211.81 109 194.69 109 172.261C109 149.804 115.232 126.379 126.779 108.629C138.311 90.9028 155.009 79 176.03 79C197.043 79 213.472 90.8934 224.74 108.612C236.025 126.358 242 149.787 242 172.261Z" fill="white" stroke="#323232" stroke-width="4" stroke-linecap="round"/>
<path d="M176 171C174.029 177.812 173 181.371 173 188.458C175.64 189.72 178.163 190.036 182.5 190" stroke="#323232" stroke-width="4" stroke-linecap="round" stroke-linejoin="round"/>
<path d="M140.768 182.225C142.829 182.225 144.657 181.11 145.953 179.382C147.249 177.655 148.035 175.291 148.035 172.702C148.035 170.112 147.249 167.748 145.953 166.021C144.657 164.293 142.829 163.178 140.768 163.178C138.706 163.178 136.878 164.293 135.582 166.021C134.287 167.748 133.5 170.112 133.5 172.702C133.5 175.291 134.287 177.655 135.582 179.382C136.878 181.11 138.706 182.225 140.768 182.225Z" fill="#323232" stroke="#323232" stroke-linecap="round"/>
<circle cx="143.616" cy="170.487" r="2.5" fill="white" stroke="#323232"/>
<path d="M212.768 182.225C214.829 182.225 216.657 181.11 217.953 179.382C219.249 177.655 220.035 175.291 220.035 172.702C220.035 170.112 219.249 167.748 217.953 166.021C216.657 164.293 214.829 163.178 212.768 163.178C210.706 163.178 208.878 164.293 207.582 166.021C206.287 167.748 205.5 170.112 205.5 172.702C205.5 175.291 206.287 177.655 207.582 179.382C208.878 181.11 210.706 182.225 212.768 182.225Z" fill="#323232" stroke="#323232" stroke-linecap="round"/>
<circle cx="215.616" cy="170.487" r="2" fill="white"/>
<path d="M168 205.5C171 209.167 178.8 214.3 186 205.5" stroke="#323232" stroke-width="4" stroke-linecap="round" stroke-linejoin="round"/>
<g filter="url(#filter0_f_10_848)">
<ellipse cx="136.5" cy="200.5" rx="9.5" ry="5.5" fill="#FC9D80"/>
</g>
<g filter="url(#filter1_f_10_848)">
<ellipse cx="215.5" cy="200.5" rx="9.5" ry="5.5" fill="#FC9D80"/>
</g>
<path d="M192 106C170.149 148.401 152.136 157.762 105 162C95.5001 97.5 110.661 83.8036 181.5 73C239.144 92.2209 240.619 110.613 242 162C207.433 152.149 204.344 137.803 192 106Z" fill="#323232"/>
</g>
<path d="M164.609 170.611C173.886 166.905 178.93 166.813 187.609 170.611" stroke="#323232" stroke-width="4" stroke-linecap="round"/>
<path d="M118 165.799L110.109 158.135" stroke="#323232" stroke-width="4"/>
<path d="M232.049 161.439L240.609 157.635" stroke="#323232" stroke-width="4"/>
<path fill-rule="evenodd" clip-rule="evenodd" d="M142.769 148.07L146.355 151.657L116.657 181.355L115.255 179.953C115.093 179.311 114.956 178.658 114.843 177.994C114.509 176.031 114.41 174.081 114.525 172.173L138.657 148.041C140.045 147.942 141.419 147.954 142.769 148.07Z" fill="white" fill-opacity="0.15"/>
<path d="M164.001 169.631C166.189 182.493 157.426 194.749 144.376 196.969C131.326 199.189 119.003 190.521 116.814 177.659C114.626 164.797 123.39 152.541 136.44 150.321C149.49 148.101 161.813 156.769 164.001 169.631Z" fill="url(#paint0_linear_10_848)" fill-opacity="0.3" stroke="#323232" stroke-width="4"/>
<path fill-rule="evenodd" clip-rule="evenodd" d="M237.886 174.612C237.957 172.865 237.847 171.086 237.543 169.296C237.511 169.111 237.478 168.927 237.443 168.744L234.941 166.243L203.78 197.404L204.681 198.305C207.396 199.086 210.273 199.434 213.217 199.28L237.886 174.612Z" fill="white" fill-opacity="0.15"/>
<path d="M235.571 169.631C237.759 182.493 228.996 194.749 215.946 196.969C202.896 199.189 190.573 190.521 188.385 177.659C186.196 164.797 194.96 152.541 208.01 150.321C221.06 148.101 233.383 156.769 235.571 169.631Z" fill="url(#paint1_linear_10_848)" fill-opacity="0.3" stroke="#323232" stroke-width="4"/>
<path d="M141.637 262.566C157.781 290.54 196.874 288.35 209.064 262.821C209.396 262.127 210.144 261.922 210.623 262.139C237.582 274.357 255.284 287.353 267.373 304.321C279.476 321.308 286.102 342.482 290.512 371.356C290.604 371.958 290.132 372.5 289.538 372.5H59.4712C58.8781 372.5 58.4054 371.956 58.5001 371.354C63.2635 341.036 71.0978 319.611 83.931 302.851C96.765 286.091 114.747 273.803 140.18 262.032C140.637 261.82 141.303 261.988 141.637 262.566Z" fill="white" stroke="#323232" stroke-width="4" stroke-linecap="round" stroke-linejoin="round"/>
<path d="M175.797 317.304L177.542 320.031L179.199 317.25L211.781 262.596C228.567 270.694 238.356 275.755 253 289.007V372.487L99 371.506V287C110.957 276.231 119.89 272.154 132.084 266.589C134.794 265.352 137.666 264.041 140.768 262.567L175.797 317.304Z" fill="#7B61FF" stroke="#323232" stroke-width="4"/>
<defs>
<filter id="filter0_f_10_848" x="115" y="183" width="43" height="35" filterUnits="userSpaceOnUse" color-interpolation-filters="sRGB">
<feFlood flood-opacity="0" result="BackgroundImageFix"/>
<feBlend mode="normal" in="SourceGraphic" in2="BackgroundImageFix" result="shape"/>
<feGaussianBlur stdDeviation="6" result="effect1_foregroundBlur_10_848"/>
</filter>
<filter id="filter1_f_10_848" x="194" y="183" width="43" height="35" filterUnits="userSpaceOnUse" color-interpolation-filters="sRGB">
<feFlood flood-opacity="0" result="BackgroundImageFix"/>
<feBlend mode="normal" in="SourceGraphic" in2="BackgroundImageFix" result="shape"/>
<feGaussianBlur stdDeviation="6" result="effect1_foregroundBlur_10_848"/>
</filter>
<linearGradient id="paint0_linear_10_848" x1="136.104" y1="148.349" x2="160.109" y2="197.635" gradientUnits="userSpaceOnUse">
<stop stop-color="white"/>
<stop offset="1" stop-color="#C0C8FE" stop-opacity="0"/>
</linearGradient>
<linearGradient id="paint1_linear_10_848" x1="207.674" y1="148.349" x2="231.679" y2="197.635" gradientUnits="userSpaceOnUse">
<stop stop-color="white"/>
<stop offset="1" stop-color="#C0C8FE" stop-opacity="0"/>
</linearGradient>
<clipPath id="clip0_10_848">
<rect width="361" height="284" fill="white"/>
</clipPath>
</defs>
</svg>
